<?xml version="1.0" standalone="no"?><!DOCTYPE svg PUBLIC "-//W3C//DTD SVG 1.1//EN" "http://www.w3.org/Graphics/SVG/1.1/DTD/svg11.dtd"><svg t="1717141896135" class="icon" viewBox="0 0 1024 1024" version="1.1" xmlns="http://www.w3.org/2000/svg" p-id="6551" xmlns:xlink="http://www.w3.org/1999/xlink" width="200" height="200"><path d="M512 64C264.6 64 64 264.6 64 512s200.6 448 448 448 448-200.6 448-448S759.4 64 512 64z m97.5 189.8l77.1 88.3-150.5 15 73.4-103.3z m-187.9 9.9l65.9 93.4-129.4-16.2 63.5-77.2z m77.3 486.6c0 11-8.9 19.9-19.9 19.9H328.4c-11 0-19.9-8.9-19.9-19.9V586c0-11 8.9-19.9 19.9-19.9H479c11 0 19.9 8.9 19.9 19.9v164.3z m216.6 0c0 11-8.9 19.9-19.9 19.9H545c-11 0-19.9-8.9-19.9-19.9V586c0-11 8.9-19.9 19.9-19.9h150.6c11 0 19.9 8.9 19.9 19.9v164.3z m19.7-207.4H288.8c-11 0-19.9-8.9-19.9-19.9V408.5c0-11 8.9-19.9 19.9-19.9h446.3c11 0 19.9 8.9 19.9 19.9V523h0.1c0 11-8.9 19.9-19.9 19.9z" fill="#FF5252" p-id="6552"></path></svg>