<?xml version="1.0" standalone="no"?><!DOCTYPE svg PUBLIC "-//W3C//DTD SVG 1.1//EN" "http://www.w3.org/Graphics/SVG/1.1/DTD/svg11.dtd"><svg t="1717141954059" class="icon" viewBox="0 0 1024 1024" version="1.1" xmlns="http://www.w3.org/2000/svg" p-id="8806" xmlns:xlink="http://www.w3.org/1999/xlink" width="200" height="200"><path d="M387.072 329.728h69.12l1.536-2.56c-15.872-16.896-39.424-32.256-70.656-32.256-14.336 0-31.232 3.072-31.232 17.408s16.896 17.408 31.232 17.408zM636.928 329.728c14.336 0 31.232-3.072 31.232-17.408s-16.896-17.408-31.232-17.408c-31.744 0-55.808 16.384-71.68 33.792l0.512 1.536h71.168z" fill="#efb336" p-id="8807"></path><path d="M512 0C229.376 0 0 229.376 0 512s229.376 512 512 512 512-229.376 512-512S794.624 0 512 0zM387.072 259.584c39.936 0 71.68 19.968 93.184 43.52 9.216-5.632 19.456-9.216 31.232-9.216s22.528 4.096 32.256 10.24c21.504-23.552 53.248-44.032 93.696-44.032 43.008 0 62.464 23.552 62.464 52.736 0 29.184-19.456 52.736-62.464 52.736H387.072c-43.008 0-62.464-23.552-62.464-52.736 0-29.696 18.944-53.248 62.464-53.248z m347.648 434.688c0 38.912-31.232 70.656-70.144 70.656H359.424c-38.912 0-70.144-31.744-70.144-70.656v-164.352h199.168v199.68h47.104v-199.68h199.168v164.352z m0-199.68h-445.44c-26.112 0-47.104-20.992-47.104-47.104s20.992-47.104 47.104-47.104h445.44c26.112 0 47.104 20.992 47.104 47.104-0.512 25.6-21.504 47.104-47.104 47.104zM512 364.544v0.512-0.512z" fill="#efb336" p-id="8808"></path></svg>