<?xml version="1.0" standalone="no"?><!DOCTYPE svg PUBLIC "-//W3C//DTD SVG 1.1//EN" "http://www.w3.org/Graphics/SVG/1.1/DTD/svg11.dtd"><svg t="1717639463778" class="icon" viewBox="0 0 1024 1024" version="1.1" xmlns="http://www.w3.org/2000/svg" p-id="8087" xmlns:xlink="http://www.w3.org/1999/xlink" width="200" height="200"><path d="M512 63.26C264.17 63.26 63.26 264.17 63.26 512S264.17 960.74 512 960.74 960.74 759.83 960.74 512 759.83 63.26 512 63.26z m229.26 431.57l-171.5 149.09c-34.32 25.3-36.93-13.32-36.93-13.32v-67.89C358.66 508.16 287.4 726.49 287.4 726.49c-6.58 12-10.55 0-10.55 0C209.51 399 532.83 383 532.83 383v-73.22c6.58-30.62 31.65-12 31.65-12l174.17 150.43c38.35 26.6 2.61 46.62 2.61 46.62z" fill="#D786EA" p-id="8088"></path><path d="M170.29 717.51a514.51 514.51 0 0 0 8.9 95.5C261.31 903.74 380 960.74 512 960.74c247.83 0 448.74-200.91 448.74-448.74a446.71 446.71 0 0 0-90.65-270.47A510.21 510.21 0 0 0 682 205.83c-282.62 0-511.71 229.09-511.71 511.68z m571-222.68L569.76 643.92c-34.32 25.3-36.93-13.32-36.93-13.32v-67.89C358.66 508.16 287.4 726.49 287.4 726.49c-6.58 12-10.55 0-10.55 0C209.51 399 532.83 383 532.83 383v-73.22c6.58-30.62 31.65-12 31.65-12l174.17 150.43c38.35 26.6 2.61 46.62 2.61 46.62z" fill="#CA6EE0" p-id="8089"></path><path d="M683.65 400.71l55 47.5c38.3 26.6 2.61 46.62 2.61 46.62l-171.5 149.09c-34.32 25.3-36.93-13.32-36.93-13.32v-67.89c-52.82-16.54-96.17-8-130.94 12a404.5 404.5 0 0 0-47.58 357.57A447.67 447.67 0 0 0 512 960.74c247.83 0 448.74-200.91 448.74-448.74a455 455 0 0 0-2.57-48.25 401.83 401.83 0 0 0-221.95-66.43 408.76 408.76 0 0 0-52.57 3.39z" fill="#C65EDB" p-id="8090"></path><path d="M952.15 599.77a406.87 406.87 0 0 0-62.75-4.85c-210 0-382.48 160.28-401.9 365.16q12.17 0.64 24.5 0.66c217.79 0 399.34-155.16 440.15-360.97z" fill="#BD50D3" p-id="8091"></path><path d="M382.32 171.87c7.57 11.35-32.2 25.36-74.15 53.32s-70.2 59.25-77.76 47.9S246 222.86 288 194.91s86.76-34.39 94.32-23.04z" fill="#FFFFFF" p-id="8092"></path></svg>